<?xml version="1.0" standalone="no"?>
<!DOCTYPE svg PUBLIC "-//W3C//DTD SVG 20010904//EN"
 "http://www.w3.org/TR/2001/REC-SVG-20010904/DTD/svg10.dtd">
<svg version="1.0" xmlns="http://www.w3.org/2000/svg"
 width="1280.000000pt" height="1280.000000pt" viewBox="0 0 1280.000000 1280.000000"
 preserveAspectRatio="xMidYMid meet">
<metadata>
Created by potrace 1.11, written by Peter Selinger 2001-2013
</metadata>
<g transform="translate(0.000000,1280.000000) scale(0.100000,-0.100000)"
fill="#000000" stroke="none">
<path d="M0 6400 l0 -6400 4279 0 4278 0 7 88 c14 186 25 422 26 533 0 106 2
118 25 149 39 53 132 110 180 110 56 -1 115 -30 150 -75 17 -21 39 -50 50 -64
20 -25 30 -47 73 -161 37 -96 61 -208 77 -353 9 -78 19 -161 21 -184 l5 -43
161 0 161 0 -7 163 c-28 665 -30 1101 -6 1247 18 113 60 490 67 602 l6 108 26
0 c14 0 55 -5 90 -10 102 -14 297 4 420 39 172 50 223 79 449 253 72 57 74 46
70 -277 -3 -233 -4 -241 -28 -289 -76 -149 -354 -296 -561 -296 -54 0 -69 -3
-69 -15 0 -42 100 -75 229 -75 l61 0 0 -187 c0 -463 48 -788 172 -1165 l32
-98 1178 0 1178 0 0 6400 0 6400 -6400 0 -6400 0 0 -6400z m6607 4793 c68 -37
103 -69 154 -139 60 -81 65 -90 100 -164 16 -36 34 -72 39 -81 5 -9 12 -34 16
-55 3 -22 10 -46 14 -54 5 -8 10 -28 13 -45 3 -16 15 -61 25 -100 11 -38 34
-168 51 -289 l31 -218 -20 -33 c-38 -61 -87 -75 -272 -75 -90 0 -210 -7 -268
-15 -156 -21 -237 -20 -280 6 -114 70 -153 200 -152 514 0 94 5 190 11 215 5
25 19 105 30 178 12 74 28 148 36 166 24 49 128 154 172 173 59 25 132 41 194
42 44 1 68 -5 106 -26z m1755 -64 c39 -6 87 -20 107 -31 20 -12 53 -29 73 -40
47 -25 123 -106 144 -155 9 -21 25 -56 35 -78 26 -55 63 -169 98 -300 16 -60
52 -189 80 -286 28 -97 51 -184 51 -193 0 -13 -19 -15 -164 -9 -105 4 -208 1
-288 -7 -145 -14 -181 -8 -224 43 -44 52 -63 110 -95 296 -17 97 -44 253 -60
346 -33 186 -45 355 -28 386 6 11 20 24 32 29 31 12 156 12 239 -1z m-1142
-259 c109 -63 147 -97 191 -170 44 -75 55 -120 104 -432 46 -292 50 -338 32
-362 -14 -19 -15 -19 -43 3 -123 95 -162 160 -184 306 -11 76 -56 269 -114
490 -15 55 -38 124 -51 153 -27 59 -29 65 -17 59 4 -2 41 -24 82 -47z m1798
-54 c33 -24 71 -59 84 -78 31 -41 141 -306 212 -509 30 -85 68 -188 86 -229
28 -68 90 -236 90 -246 0 -2 -36 25 -80 61 -43 35 -97 74 -119 87 -35 20 -42
30 -51 73 -18 85 -240 738 -295 868 -12 28 8 20 73 -27z m-4210 -41 c38 -23
84 -104 106 -188 14 -55 57 -199 132 -442 49 -163 59 -211 75 -359 13 -128 7
-181 -24 -207 -35 -31 -95 -60 -156 -75 -60 -16 -107 -41 -96 -52 4 -4 106 -7
228 -8 367 -2 611 -45 702 -125 38 -34 51 -36 60 -9 13 40 93 153 170 238 81
90 267 199 388 227 96 22 323 41 412 34 159 -13 577 -152 735 -245 35 -20 95
-66 134 -103 130 -122 151 -141 158 -141 3 0 23 24 44 53 20 28 45 61 55 72
10 11 41 48 68 82 71 87 118 121 269 193 179 86 396 127 627 116 195 -9 214
-11 269 -30 88 -30 300 -183 423 -305 47 -47 66 -78 171 -286 99 -196 142
-313 197 -535 20 -80 56 -206 80 -280 24 -74 53 -168 65 -208 11 -40 53 -160
92 -265 109 -297 199 -575 205 -632 5 -47 3 -53 -22 -73 -39 -31 -134 -31
-195 1 -39 20 -54 40 -142 185 -114 189 -149 282 -224 597 -44 183 -98 360
-116 379 -4 6 -8 -28 -9 -75 -2 -185 -31 -393 -68 -486 -30 -76 -97 -207 -144
-281 -45 -72 -114 -123 -192 -143 -58 -15 -221 -6 -289 15 -59 18 -152 73
-227 136 -66 55 -189 188 -189 206 0 7 -4 14 -9 16 -5 2 -41 52 -81 113 -41
60 -77 114 -82 120 -49 62 -61 75 -66 71 -10 -11 0 -206 18 -356 21 -165 25
-330 11 -393 -19 -80 -96 -125 -223 -133 l-83 -4 -69 47 c-45 31 -84 68 -108
103 -48 69 -124 224 -154 314 -33 97 -86 229 -96 240 -4 6 -8 -10 -8 -35 0
-46 -37 -211 -65 -288 -23 -66 -60 -108 -137 -158 -123 -80 -181 -101 -303
-113 -103 -9 -115 -9 -195 14 -260 74 -321 89 -331 79 -15 -15 147 -163 228
-208 64 -36 202 -130 213 -145 3 -4 33 -38 66 -76 151 -169 207 -247 316 -434
156 -269 221 -387 307 -565 115 -237 136 -298 156 -438 9 -62 29 -186 45 -277
37 -211 55 -336 86 -589 23 -193 24 -217 14 -415 -11 -202 -39 -593 -60 -816
-28 -308 -30 -317 -87 -479 -31 -86 -71 -201 -90 -256 -44 -129 -99 -228 -186
-340 -39 -49 -76 -95 -82 -101 -5 -6 -44 -48 -85 -93 -117 -129 -205 -212
-278 -260 -80 -52 -69 -52 118 2 69 19 192 54 274 77 251 70 423 133 585 215
47 23 115 55 150 70 108 45 235 110 364 187 97 58 144 94 233 180 61 59 113
108 116 108 3 0 17 -33 32 -72 34 -89 66 -153 121 -238 49 -75 161 -199 199
-219 36 -20 34 -46 -14 -193 -35 -106 -52 -140 -122 -243 -130 -192 -132 -194
-434 -444 -73 -59 -154 -121 -181 -138 -55 -34 -231 -120 -313 -153 -30 -12
-80 -33 -110 -45 -58 -25 -276 -97 -345 -114 -110 -28 -386 -101 -430 -114
-27 -8 -95 -25 -150 -37 -55 -12 -192 -45 -305 -72 -113 -27 -221 -50 -240
-51 l-34 -2 -27 95 c-38 132 -94 265 -136 322 -40 55 -103 92 -218 128 -128
39 -309 11 -432 -69 -83 -54 -119 -99 -145 -184 -20 -62 -22 -90 -20 -207 2
-74 4 -153 5 -174 l2 -39 -105 -25 c-225 -53 -654 -27 -955 60 -101 29 -143
50 -154 78 -14 35 -92 429 -103 520 -10 84 -4 160 17 200 26 50 90 98 160 119
54 17 96 21 219 22 197 2 274 20 136 32 -66 6 -571 90 -770 129 -269 52 -649
155 -843 229 -100 38 -179 50 -192 29 -14 -23 -23 -6 -29 62 -8 85 -38 209
-71 290 -13 32 -23 58 -21 58 1 0 25 -21 52 -47 55 -53 144 -90 496 -205 231
-75 922 -247 936 -233 3 2 -20 44 -51 94 -131 210 -379 710 -420 848 -8 26
-36 116 -62 198 -100 326 -112 367 -175 610 -23 88 -57 210 -76 270 -49 159
-110 396 -180 705 -14 63 -52 221 -84 350 -66 264 -122 532 -134 640 -1 9 -5
20 -9 26 -24 40 -80 479 -70 559 2 22 11 89 19 148 16 125 18 263 4 272 -22
14 -47 -8 -85 -76 -53 -96 -87 -141 -170 -233 -93 -101 -136 -119 -290 -120
-60 0 -123 3 -139 7 -107 29 -406 242 -406 289 0 26 39 70 77 88 56 26 67 25
123 -9 26 -16 70 -37 96 -47 63 -22 230 -30 321 -15 161 28 284 151 326 331
44 182 46 423 6 543 -11 34 -45 112 -74 173 -48 100 -62 118 -132 183 -46 42
-105 85 -143 104 -56 27 -75 32 -140 31 -116 -1 -216 -37 -300 -109 -20 -17
-34 -21 -71 -17 -65 6 -114 47 -134 115 -23 76 -55 300 -55 389 0 77 0 77 38
112 48 44 218 163 294 204 92 50 198 94 273 113 39 9 86 22 105 29 60 19 222
40 307 40 147 0 288 -36 406 -104 128 -74 159 -96 228 -163 33 -32 63 -59 67
-60 4 -2 8 59 8 135 2 179 14 243 64 347 35 70 56 98 124 162 44 42 115 103
156 136 41 33 98 79 125 102 44 37 204 135 221 135 13 0 114 65 114 74 0 19
-112 -5 -278 -59 l-173 -57 -47 28 c-25 16 -54 43 -64 59 -9 17 -29 89 -43
160 -23 109 -28 166 -32 355 -5 205 4 377 24 430 3 8 18 50 33 92 15 43 42
100 60 128 63 98 220 197 383 241 102 27 316 24 365 -6z m438 -153 c55 -42 88
-100 130 -229 24 -75 33 -131 60 -378 14 -121 15 -167 6 -239 -10 -80 -23
-118 -36 -105 -3 2 -10 63 -16 134 -12 144 -32 239 -84 395 -74 225 -116 333
-166 425 l-51 96 53 -30 c29 -17 76 -48 104 -69z m-1896 -697 c90 -21 164 -73
186 -131 15 -40 16 -57 5 -165 -7 -67 -14 -160 -17 -208 -16 -343 -31 -505
-55 -594 -11 -42 -36 -57 -98 -57 l-38 0 -7 308 c-6 296 -26 583 -39 552 -3
-8 -8 -51 -12 -95 -3 -44 -12 -132 -20 -195 -8 -63 -17 -140 -20 -170 -3 -30
-10 -89 -15 -130 -5 -41 -12 -113 -16 -160 -9 -112 -15 -128 -56 -134 -18 -3
-98 -15 -178 -26 -80 -12 -188 -33 -240 -47 -101 -26 -237 -34 -322 -20 -38 7
-51 14 -67 40 -40 66 -54 327 -26 493 17 100 62 259 81 288 31 46 198 207 260
251 182 127 328 190 472 204 130 12 151 12 222 -4z m7710 -1729 c129 -95 328
-288 383 -371 56 -84 114 -197 136 -265 l21 -64 -29 -30 c-96 -102 -108 -458
-30 -920 11 -66 22 -123 25 -127 2 -4 22 -70 44 -146 71 -254 143 -421 215
-501 l42 -47 7 -175 c13 -364 19 -650 13 -650 -3 0 -28 8 -54 19 -26 10 -91
29 -143 41 -97 24 -146 50 -214 113 -40 37 -53 77 -62 192 -5 75 -4 85 26 155
77 180 106 353 97 580 -10 258 -81 535 -163 640 -25 32 -208 411 -255 528 -76
190 -158 520 -184 741 -17 149 -21 385 -5 379 5 -1 64 -43 130 -92z m-371 -40
c71 -20 91 -39 91 -90 0 -108 35 -362 75 -541 32 -148 97 -334 166 -479 10
-22 18 -40 16 -41 -1 -1 -74 -7 -161 -13 -177 -13 -170 -15 -182 53 -3 22 -31
112 -60 201 -29 89 -55 172 -58 185 -3 13 -28 96 -56 184 -71 223 -90 300 -90
376 0 69 7 84 69 152 21 23 32 27 80 27 31 0 80 -7 110 -14z m-8038 -643 c30
-15 84 -57 120 -93 92 -90 112 -143 117 -309 6 -200 -42 -355 -146 -471 -59
-68 -113 -85 -202 -66 -122 25 -190 79 -250 196 -43 86 -60 156 -66 280 -5
100 4 265 17 309 9 31 86 115 132 144 39 25 135 47 183 42 22 -2 65 -17 95
-32z m8497 -705 c91 -141 213 -434 198 -474 -3 -8 -2 -13 2 -10 9 6 24 -68 43
-209 15 -116 6 -316 -20 -421 -21 -85 -44 -148 -90 -247 -52 -112 -61 -139
-61 -186 0 -92 56 -235 117 -298 55 -57 121 -107 181 -137 50 -25 52 -28 48
-59 -66 -413 -75 -466 -97 -579 -49 -244 -168 -518 -224 -518 -18 0 -196 220
-189 232 4 6 3 8 -2 5 -6 -3 -37 17 -69 44 -33 28 -68 57 -77 64 -30 25 -176
104 -227 125 -78 30 -75 7 8 -68 81 -73 234 -247 286 -325 31 -47 37 -67 50
-163 19 -144 19 -341 -1 -424 -34 -144 -135 -268 -317 -389 -60 -39 -114 -71
-120 -71 -9 0 -13 61 -14 215 -1 119 -7 241 -12 273 -6 31 -13 71 -15 87 -13
73 -108 343 -139 393 -21 33 -27 6 -21 -100 5 -88 2 -147 -15 -263 -58 -411
-92 -531 -178 -625 -52 -58 -135 -74 -251 -49 -82 17 -153 96 -203 222 -26 66
-77 344 -88 482 -12 149 1 310 31 385 34 87 159 344 170 351 5 3 9 9 8 13 -4
13 50 123 68 139 28 26 163 66 259 77 134 15 167 13 228 -16 31 -15 58 -24 61
-21 3 3 -4 19 -16 35 -13 18 -19 35 -15 43 5 7 4 10 -3 5 -17 -10 -89 131
-108 214 -13 58 -15 98 -10 180 19 307 57 441 193 679 65 115 88 128 192 113
94 -15 173 -42 167 -58 -3 -7 2 -10 13 -7 21 5 111 -33 191 -82 32 -19 60 -35
64 -35 25 0 -34 114 -115 221 -32 42 -87 100 -124 129 -36 30 -80 75 -96 100
-80 120 -149 313 -149 418 0 40 27 209 51 320 5 26 26 81 47 122 46 93 96 132
232 177 52 17 100 32 106 32 7 1 30 -27 52 -61z m-1542 -2165 c-26 -88 -42
-468 -23 -555 l8 -38 -148 0 c-168 0 -228 -12 -303 -60 -69 -44 -92 -75 -133
-177 -37 -94 -47 -148 -76 -408 l-17 -160 -14 119 c-11 98 -11 147 -2 267 7
81 19 169 27 196 34 113 173 262 284 304 66 24 146 39 217 39 l51 0 6 103 c9
151 48 336 79 375 16 19 50 15 44 -5z"/>
<path d="M8973 8951 c-83 -31 -144 -84 -182 -160 -17 -32 -24 -68 -28 -137 -3
-53 -2 -94 3 -94 5 0 23 25 39 56 17 31 44 67 60 79 71 54 173 75 270 55 108
-22 156 -58 193 -140 46 -106 57 -153 57 -255 0 -164 -32 -237 -139 -321 -87
-68 -111 -78 -201 -78 -97 -1 -166 21 -224 70 -49 42 -54 28 -16 -46 36 -70
119 -167 165 -190 22 -11 70 -27 107 -36 148 -34 275 13 413 156 100 103 173
367 149 539 -15 108 -69 252 -123 324 -33 45 -163 138 -230 165 -85 34 -239
41 -313 13z"/>
<path d="M6872 8895 c-116 -26 -240 -120 -262 -199 -20 -73 -4 -267 18 -206
10 30 108 123 152 145 59 30 154 41 211 24 55 -17 147 -71 182 -107 36 -38 90
-137 108 -197 9 -34 14 -99 14 -200 0 -136 -2 -156 -25 -214 -49 -124 -142
-182 -295 -185 -88 -1 -130 11 -184 55 -36 30 -57 30 -42 1 5 -9 15 -30 22
-46 19 -41 69 -89 126 -123 42 -24 60 -28 149 -31 176 -7 277 30 383 138 73
74 113 148 137 259 32 142 3 372 -69 550 -38 95 -86 168 -155 237 -52 53 -73
67 -130 85 -86 28 -249 35 -340 14z"/>
<path d="M4710 8451 c-87 -28 -121 -49 -192 -122 -48 -50 -73 -85 -88 -125
-23 -63 -39 -204 -23 -204 6 0 13 10 17 23 9 39 97 118 162 148 80 36 167 54
227 45 101 -15 281 -129 325 -206 42 -73 72 -196 72 -290 0 -122 -24 -180
-110 -269 -89 -93 -150 -122 -261 -123 -96 -2 -141 14 -222 76 -27 21 -51 35
-53 33 -12 -11 40 -100 90 -154 78 -85 130 -106 271 -111 99 -3 118 -1 190 23
100 34 126 50 197 122 42 43 67 80 94 143 l38 85 0 150 c1 206 -19 307 -87
445 -114 230 -268 331 -503 329 -57 0 -109 -7 -144 -18z"/>
<path d="M5800 5685 c-82 -18 -254 -104 -315 -158 -91 -79 -126 -151 -131
-272 l-5 -90 25 57 c28 66 66 107 127 136 63 29 236 55 328 49 139 -9 361
-100 444 -182 160 -158 211 -305 211 -605 0 -187 -12 -249 -71 -362 -63 -120
-143 -188 -254 -214 -104 -25 -273 -2 -384 52 -117 57 -276 230 -365 398 -40
76 -38 50 4 -66 44 -124 88 -209 147 -288 139 -189 261 -245 529 -245 l145 1
83 37 c90 40 160 78 208 114 17 13 33 20 36 17 7 -6 118 104 118 117 0 6 4 8
9 5 5 -4 7 3 4 14 -3 11 -1 20 4 20 18 0 55 133 65 235 23 237 -32 584 -127
790 -41 90 -168 259 -231 308 -63 50 -214 122 -282 136 -72 15 -243 12 -322
-4z"/>
<path d="M4638 5237 c-60 -116 -81 -684 -38 -1027 26 -204 27 -211 39 -270 5
-25 11 -61 14 -80 9 -59 65 -276 98 -378 34 -105 67 -176 129 -278 22 -35 40
-66 40 -68 0 -2 20 -48 45 -101 51 -109 186 -448 203 -510 20 -76 34 -234 29
-337 -10 -216 -71 -316 -242 -397 -47 -23 -90 -41 -95 -41 -6 0 -10 -4 -10 -9
0 -12 36 -16 240 -31 85 -6 202 -15 260 -20 264 -23 911 -6 1125 29 33 6 93
15 132 22 78 12 97 23 61 35 -57 18 -144 92 -177 153 -33 62 -61 122 -61 133
0 7 -6 25 -14 40 -33 62 -59 211 -60 338 -1 111 2 132 23 185 20 50 141 241
186 295 7 8 52 87 100 175 48 88 105 187 126 220 20 33 61 107 90 165 29 58
55 107 58 110 3 3 7 12 9 20 2 8 9 29 17 45 65 151 105 286 105 354 0 52 -7
48 -46 -29 -61 -122 -151 -245 -234 -323 -90 -85 -232 -197 -249 -197 -6 0
-11 -4 -11 -8 0 -8 -90 -56 -163 -87 -90 -39 -419 -44 -537 -10 -30 9 -84 24
-120 34 -87 24 -255 104 -305 145 -168 139 -309 322 -420 546 -93 190 -211
500 -240 635 -2 11 -11 45 -20 75 -17 61 -40 237 -51 378 -3 50 -9 94 -13 96
-4 3 -14 -10 -23 -27z"/>
</g>
</svg>
